<?xml version="1.0" encoding="UTF-8"?>
<svg width="700pt" height="700pt" version="1.1" viewBox="0 0 700 700" xmlns="http://www.w3.org/2000/svg">
 <path d="m443.33 373.33v-58.332c0-6.4414 5.2266-11.668 11.668-11.668s11.668 5.2266 11.668 11.668v70c0 6.4414-5.2266 11.668-11.668 11.668h-70c-6.4414 0-11.668-5.2266-11.668-11.668s5.2266-11.668 11.668-11.668zm-210-210v58.336c0 6.4414-5.2227 11.664-11.664 11.664-6.4453 0-11.668-5.2227-11.668-11.664v-70c0-6.4453 5.2227-11.668 11.668-11.668h70c6.4414 0 11.664 5.2227 11.664 11.668 0 6.4414-5.2227 11.664-11.664 11.664zm-81.664 303.34c-6.4453 0-11.668-5.2266-11.668-11.668v-373.33c0-6.4453 5.2227-11.668 11.668-11.668h373.33c6.4414 0 11.668 5.2227 11.668 11.668v373.33c0 6.4414-5.2266 11.668-11.668 11.668zm11.664-23.336h350v-350h-350z"/>
</svg>
